<svg width="1515" height="710" viewBox="0 0 1515 710" fill="none" xmlns="http://www.w3.org/2000/svg">
<path d="M8.64 146.76C8.64 126.6 12.672 108.648 20.736 92.904C28.992 77.16 40.704 64.968 55.872 56.328C71.04 47.496 88.896 43.08 109.44 43.08C127.104 43.08 142.848 46.44 156.672 53.16C170.688 59.688 182.016 69 190.656 81.096C199.488 93.192 205.344 107.304 208.224 123.432H140.832C137.76 116.712 133.344 111.528 127.584 107.88C122.016 104.04 115.584 102.12 108.288 102.12C97.536 102.12 88.992 106.152 82.656 114.216C76.512 122.28 73.44 133.128 73.44 146.76C73.44 160.392 76.512 171.24 82.656 179.304C88.992 187.368 97.536 191.4 108.288 191.4C115.584 191.4 122.016 189.576 127.584 185.928C133.344 182.088 137.76 176.808 140.832 170.088H208.224C205.344 186.216 199.488 200.328 190.656 212.424C182.016 224.52 170.688 233.928 156.672 240.648C142.848 247.176 127.104 250.44 109.44 250.44C88.896 250.44 71.04 246.12 55.872 237.48C40.704 228.648 28.992 216.36 20.736 200.616C12.672 184.872 8.64 166.92 8.64 146.76ZM295.18 200.616H356.812V249H231.244V45.096H295.18V200.616ZM507.683 218.184H439.715L429.635 249H362.531L437.123 45.096H510.851L585.155 249H517.763L507.683 218.184ZM492.131 170.088L473.699 113.352L455.267 170.088H492.131ZM679.457 251.016C655.073 251.016 634.913 245.352 618.977 234.024C603.233 222.504 594.689 205.704 593.345 183.624H661.313C662.273 195.336 667.457 201.192 676.865 201.192C680.321 201.192 683.201 200.424 685.505 198.888C688.001 197.16 689.249 194.568 689.249 191.112C689.249 186.312 686.657 182.472 681.473 179.592C676.289 176.52 668.225 173.064 657.281 169.224C644.225 164.616 633.377 160.104 624.737 155.688C616.289 151.272 608.993 144.84 602.849 136.392C596.705 127.944 593.729 117.096 593.921 103.848C593.921 90.6 597.281 79.368 604.001 70.152C610.913 60.744 620.225 53.64 631.937 48.84C643.841 44.04 657.185 41.64 671.969 41.64C696.929 41.64 716.705 47.4 731.297 58.92C746.081 70.44 753.857 86.664 754.625 107.592H685.793C685.601 101.832 684.161 97.704 681.473 95.208C678.785 92.712 675.521 91.464 671.681 91.464C668.993 91.464 666.785 92.424 665.057 94.344C663.329 96.072 662.465 98.568 662.465 101.832C662.465 106.44 664.961 110.28 669.953 113.352C675.137 116.232 683.297 119.784 694.433 124.008C707.297 128.808 717.857 133.416 726.113 137.832C734.561 142.248 741.857 148.392 748.001 156.264C754.145 164.136 757.217 174.024 757.217 185.928C757.217 198.408 754.145 209.64 748.001 219.624C741.857 229.416 732.929 237.096 721.217 242.664C709.505 248.232 695.585 251.016 679.457 251.016ZM859.457 251.016C835.073 251.016 814.913 245.352 798.977 234.024C783.233 222.504 774.689 205.704 773.345 183.624H841.313C842.273 195.336 847.457 201.192 856.865 201.192C860.321 201.192 863.201 200.424 865.505 198.888C868.001 197.16 869.249 194.568 869.249 191.112C869.249 186.312 866.657 182.472 861.473 179.592C856.289 176.52 848.225 173.064 837.281 169.224C824.225 164.616 813.377 160.104 804.737 155.688C796.289 151.272 788.993 144.84 782.849 136.392C776.705 127.944 773.729 117.096 773.921 103.848C773.921 90.6 777.281 79.368 784.001 70.152C790.913 60.744 800.225 53.64 811.937 48.84C823.841 44.04 837.185 41.64 851.969 41.64C876.929 41.64 896.705 47.4 911.297 58.92C926.081 70.44 933.857 86.664 934.625 107.592H865.793C865.601 101.832 864.161 97.704 861.473 95.208C858.785 92.712 855.521 91.464 851.681 91.464C848.993 91.464 846.785 92.424 845.057 94.344C843.329 96.072 842.465 98.568 842.465 101.832C842.465 106.44 844.961 110.28 849.953 113.352C855.137 116.232 863.297 119.784 874.433 124.008C887.297 128.808 897.857 133.416 906.113 137.832C914.561 142.248 921.857 148.392 928.001 156.264C934.145 164.136 937.217 174.024 937.217 185.928C937.217 198.408 934.145 209.64 928.001 219.624C921.857 229.416 912.929 237.096 901.217 242.664C889.505 248.232 875.585 251.016 859.457 251.016ZM1155.52 45.096L1082.37 187.08V249H1018.43V187.08L945.281 45.096H1018.43L1050.98 117.384L1083.52 45.096H1155.52ZM534.614 551.016C510.23 551.016 490.07 545.352 474.134 534.024C458.39 522.504 449.846 505.704 448.502 483.624H516.469C517.43 495.336 522.614 501.192 532.022 501.192C535.478 501.192 538.358 500.424 540.662 498.888C543.158 497.16 544.406 494.568 544.406 491.112C544.406 486.312 541.814 482.472 536.63 479.592C531.446 476.52 523.382 473.064 512.438 469.224C499.382 464.616 488.534 460.104 479.894 455.688C471.446 451.272 464.15 444.84 458.006 436.392C451.862 427.944 448.886 417.096 449.078 403.848C449.078 390.6 452.438 379.368 459.158 370.152C466.07 360.744 475.382 353.64 487.094 348.84C498.998 344.04 512.342 341.64 527.126 341.64C552.086 341.64 571.862 347.4 586.454 358.92C601.238 370.44 609.014 386.664 609.781 407.592H540.95C540.758 401.832 539.318 397.704 536.63 395.208C533.942 392.712 530.678 391.464 526.838 391.464C524.15 391.464 521.942 392.424 520.214 394.344C518.486 396.072 517.622 398.568 517.622 401.832C517.622 406.44 520.118 410.28 525.109 413.352C530.294 416.232 538.454 419.784 549.59 424.008C562.454 428.808 573.014 433.416 581.27 437.832C589.718 442.248 597.014 448.392 603.157 456.264C609.302 464.136 612.374 474.024 612.374 485.928C612.374 498.408 609.302 509.64 603.157 519.624C597.014 529.416 588.086 537.096 576.374 542.664C564.662 548.232 550.742 551.016 534.614 551.016ZM823.478 345.096V549H759.542V469.512H698.774V549H634.838V345.096H698.774V418.536H759.542V345.096H823.478ZM951.604 551.016C932.404 551.016 914.74 546.504 898.612 537.48C882.676 528.456 870.004 515.976 860.596 500.04C851.188 484.104 846.484 466.152 846.484 446.184C846.484 426.216 851.188 408.264 860.596 392.328C870.004 376.392 882.676 364.008 898.612 355.176C914.74 346.152 932.404 341.64 951.604 341.64C970.804 341.64 988.372 346.152 1004.31 355.176C1020.24 364.008 1032.82 376.392 1042.04 392.328C1051.44 408.264 1056.15 426.216 1056.15 446.184C1056.15 466.152 1051.44 484.104 1042.04 500.04C1032.82 515.976 1020.15 528.456 1004.02 537.48C988.084 546.504 970.612 551.016 951.604 551.016ZM951.604 491.4C964.276 491.4 974.068 487.368 980.98 479.304C987.892 471.048 991.348 460.008 991.348 446.184C991.348 432.168 987.892 421.128 980.98 413.064C974.068 404.808 964.276 400.68 951.604 400.68C938.74 400.68 928.852 404.808 921.94 413.064C915.028 421.128 911.572 432.168 911.572 446.184C911.572 460.008 915.028 471.048 921.94 479.304C928.852 487.368 938.74 491.4 951.604 491.4ZM1143.15 396.072V421.128H1206.51V469.224H1143.15V498.024H1215.15V549H1079.21V345.096H1215.15V396.072H1143.15ZM1319.02 551.016C1294.64 551.016 1274.48 545.352 1258.54 534.024C1242.8 522.504 1234.25 505.704 1232.91 483.624H1300.88C1301.84 495.336 1307.02 501.192 1316.43 501.192C1319.88 501.192 1322.76 500.424 1325.07 498.888C1327.56 497.16 1328.81 494.568 1328.81 491.112C1328.81 486.312 1326.22 482.472 1321.04 479.592C1315.85 476.52 1307.79 473.064 1296.84 469.224C1283.79 464.616 1272.94 460.104 1264.3 455.688C1255.85 451.272 1248.56 444.84 1242.41 436.392C1236.27 427.944 1233.29 417.096 1233.48 403.848C1233.48 390.6 1236.84 379.368 1243.56 370.152C1250.48 360.744 1259.79 353.64 1271.5 348.84C1283.4 344.04 1296.75 341.64 1311.53 341.64C1336.49 341.64 1356.27 347.4 1370.86 358.92C1385.64 370.44 1393.42 386.664 1394.19 407.592H1325.36C1325.16 401.832 1323.72 397.704 1321.04 395.208C1318.35 392.712 1315.08 391.464 1311.24 391.464C1308.56 391.464 1306.35 392.424 1304.62 394.344C1302.89 396.072 1302.03 398.568 1302.03 401.832C1302.03 406.44 1304.52 410.28 1309.52 413.352C1314.7 416.232 1322.86 419.784 1334 424.008C1346.86 428.808 1357.42 433.416 1365.68 437.832C1374.12 442.248 1381.42 448.392 1387.56 456.264C1393.71 464.136 1396.78 474.024 1396.78 485.928C1396.78 498.408 1393.71 509.64 1387.56 519.624C1381.42 529.416 1372.49 537.096 1360.78 542.664C1349.07 548.232 1335.15 551.016 1319.02 551.016Z" fill="#8F969B"/>
<path d="M63.64 177.76C63.64 157.6 67.672 139.648 75.736 123.904C83.992 108.16 95.704 95.968 110.872 87.328C126.04 78.496 143.896 74.08 164.44 74.08C182.104 74.08 197.848 77.44 211.672 84.16C225.688 90.688 237.016 100 245.656 112.096C254.488 124.192 260.344 138.304 263.224 154.432H195.832C192.76 147.712 188.344 142.528 182.584 138.88C177.016 135.04 170.584 133.12 163.288 133.12C152.536 133.12 143.992 137.152 137.656 145.216C131.512 153.28 128.44 164.128 128.44 177.76C128.44 191.392 131.512 202.24 137.656 210.304C143.992 218.368 152.536 222.4 163.288 222.4C170.584 222.4 177.016 220.576 182.584 216.928C188.344 213.088 192.76 207.808 195.832 201.088H263.224C260.344 217.216 254.488 231.328 245.656 243.424C237.016 255.52 225.688 264.928 211.672 271.648C197.848 278.176 182.104 281.44 164.44 281.44C143.896 281.44 126.04 277.12 110.872 268.48C95.704 259.648 83.992 247.36 75.736 231.616C67.672 215.872 63.64 197.92 63.64 177.76ZM350.18 231.616H411.812V280H286.244V76.096H350.18V231.616ZM562.683 249.184H494.715L484.635 280H417.531L492.123 76.096H565.851L640.155 280H572.763L562.683 249.184ZM547.131 201.088L528.699 144.352L510.267 201.088H547.131ZM734.457 282.016C710.073 282.016 689.913 276.352 673.977 265.024C658.233 253.504 649.689 236.704 648.345 214.624H716.313C717.273 226.336 722.457 232.192 731.865 232.192C735.321 232.192 738.201 231.424 740.505 229.888C743.001 228.16 744.249 225.568 744.249 222.112C744.249 217.312 741.657 213.472 736.473 210.592C731.289 207.52 723.225 204.064 712.281 200.224C699.225 195.616 688.377 191.104 679.737 186.688C671.289 182.272 663.993 175.84 657.849 167.392C651.705 158.944 648.729 148.096 648.921 134.848C648.921 121.6 652.281 110.368 659.001 101.152C665.913 91.744 675.225 84.64 686.937 79.84C698.841 75.04 712.185 72.64 726.969 72.64C751.929 72.64 771.705 78.4 786.297 89.92C801.081 101.44 808.857 117.664 809.625 138.592H740.793C740.601 132.832 739.161 128.704 736.473 126.208C733.785 123.712 730.521 122.464 726.681 122.464C723.993 122.464 721.785 123.424 720.057 125.344C718.329 127.072 717.465 129.568 717.465 132.832C717.465 137.44 719.961 141.28 724.953 144.352C730.137 147.232 738.297 150.784 749.433 155.008C762.297 159.808 772.857 164.416 781.113 168.832C789.561 173.248 796.857 179.392 803.001 187.264C809.145 195.136 812.217 205.024 812.217 216.928C812.217 229.408 809.145 240.64 803.001 250.624C796.857 260.416 787.929 268.096 776.217 273.664C764.505 279.232 750.585 282.016 734.457 282.016ZM914.457 282.016C890.073 282.016 869.913 276.352 853.977 265.024C838.233 253.504 829.689 236.704 828.345 214.624H896.313C897.273 226.336 902.457 232.192 911.865 232.192C915.321 232.192 918.201 231.424 920.505 229.888C923.001 228.16 924.249 225.568 924.249 222.112C924.249 217.312 921.657 213.472 916.473 210.592C911.289 207.52 903.225 204.064 892.281 200.224C879.225 195.616 868.377 191.104 859.737 186.688C851.289 182.272 843.993 175.84 837.849 167.392C831.705 158.944 828.729 148.096 828.921 134.848C828.921 121.6 832.281 110.368 839.001 101.152C845.913 91.744 855.225 84.64 866.937 79.84C878.841 75.04 892.185 72.64 906.969 72.64C931.929 72.64 951.705 78.4 966.297 89.92C981.081 101.44 988.857 117.664 989.625 138.592H920.793C920.601 132.832 919.161 128.704 916.473 126.208C913.785 123.712 910.521 122.464 906.681 122.464C903.993 122.464 901.785 123.424 900.057 125.344C898.329 127.072 897.465 129.568 897.465 132.832C897.465 137.44 899.961 141.28 904.953 144.352C910.137 147.232 918.297 150.784 929.433 155.008C942.297 159.808 952.857 164.416 961.113 168.832C969.561 173.248 976.857 179.392 983.001 187.264C989.145 195.136 992.217 205.024 992.217 216.928C992.217 229.408 989.145 240.64 983.001 250.624C976.857 260.416 967.929 268.096 956.217 273.664C944.505 279.232 930.585 282.016 914.457 282.016ZM1210.52 76.096L1137.37 218.08V280H1073.43V218.08L1000.28 76.096H1073.43L1105.98 148.384L1138.52 76.096H1210.52ZM589.614 582.016C565.23 582.016 545.07 576.352 529.134 565.024C513.39 553.504 504.846 536.704 503.502 514.624H571.469C572.43 526.336 577.614 532.192 587.022 532.192C590.478 532.192 593.358 531.424 595.662 529.888C598.158 528.16 599.406 525.568 599.406 522.112C599.406 517.312 596.814 513.472 591.63 510.592C586.446 507.52 578.382 504.064 567.438 500.224C554.382 495.616 543.534 491.104 534.894 486.688C526.446 482.272 519.15 475.84 513.006 467.392C506.862 458.944 503.886 448.096 504.078 434.848C504.078 421.6 507.438 410.368 514.158 401.152C521.07 391.744 530.382 384.64 542.094 379.84C553.998 375.04 567.342 372.64 582.126 372.64C607.086 372.64 626.862 378.4 641.454 389.92C656.238 401.44 664.014 417.664 664.781 438.592H595.95C595.758 432.832 594.318 428.704 591.63 426.208C588.942 423.712 585.678 422.464 581.838 422.464C579.15 422.464 576.942 423.424 575.214 425.344C573.486 427.072 572.622 429.568 572.622 432.832C572.622 437.44 575.118 441.28 580.109 444.352C585.294 447.232 593.454 450.784 604.59 455.008C617.454 459.808 628.014 464.416 636.27 468.832C644.718 473.248 652.014 479.392 658.157 487.264C664.302 495.136 667.374 505.024 667.374 516.928C667.374 529.408 664.302 540.64 658.157 550.624C652.014 560.416 643.086 568.096 631.374 573.664C619.662 579.232 605.742 582.016 589.614 582.016ZM878.478 376.096V580H814.542V500.512H753.774V580H689.838V376.096H753.774V449.536H814.542V376.096H878.478ZM1006.6 582.016C987.404 582.016 969.74 577.504 953.612 568.48C937.676 559.456 925.004 546.976 915.596 531.04C906.188 515.104 901.484 497.152 901.484 477.184C901.484 457.216 906.188 439.264 915.596 423.328C925.004 407.392 937.676 395.008 953.612 386.176C969.74 377.152 987.404 372.64 1006.6 372.64C1025.8 372.64 1043.37 377.152 1059.31 386.176C1075.24 395.008 1087.82 407.392 1097.04 423.328C1106.44 439.264 1111.15 457.216 1111.15 477.184C1111.15 497.152 1106.44 515.104 1097.04 531.04C1087.82 546.976 1075.15 559.456 1059.02 568.48C1043.08 577.504 1025.61 582.016 1006.6 582.016ZM1006.6 522.4C1019.28 522.4 1029.07 518.368 1035.98 510.304C1042.89 502.048 1046.35 491.008 1046.35 477.184C1046.35 463.168 1042.89 452.128 1035.98 444.064C1029.07 435.808 1019.28 431.68 1006.6 431.68C993.74 431.68 983.852 435.808 976.94 444.064C970.028 452.128 966.572 463.168 966.572 477.184C966.572 491.008 970.028 502.048 976.94 510.304C983.852 518.368 993.74 522.4 1006.6 522.4ZM1198.15 427.072V452.128H1261.51V500.224H1198.15V529.024H1270.15V580H1134.21V376.096H1270.15V427.072H1198.15ZM1374.02 582.016C1349.64 582.016 1329.48 576.352 1313.54 565.024C1297.8 553.504 1289.25 536.704 1287.91 514.624H1355.88C1356.84 526.336 1362.02 532.192 1371.43 532.192C1374.88 532.192 1377.76 531.424 1380.07 529.888C1382.56 528.16 1383.81 525.568 1383.81 522.112C1383.81 517.312 1381.22 513.472 1376.04 510.592C1370.85 507.52 1362.79 504.064 1351.84 500.224C1338.79 495.616 1327.94 491.104 1319.3 486.688C1310.85 482.272 1303.56 475.84 1297.41 467.392C1291.27 458.944 1288.29 448.096 1288.48 434.848C1288.48 421.6 1291.84 410.368 1298.56 401.152C1305.48 391.744 1314.79 384.64 1326.5 379.84C1338.4 375.04 1351.75 372.64 1366.53 372.64C1391.49 372.64 1411.27 378.4 1425.86 389.92C1440.64 401.44 1448.42 417.664 1449.19 438.592H1380.36C1380.16 432.832 1378.72 428.704 1376.04 426.208C1373.35 423.712 1370.08 422.464 1366.24 422.464C1363.56 422.464 1361.35 423.424 1359.62 425.344C1357.89 427.072 1357.03 429.568 1357.03 432.832C1357.03 437.44 1359.52 441.28 1364.52 444.352C1369.7 447.232 1377.86 450.784 1389 455.008C1401.86 459.808 1412.42 464.416 1420.68 468.832C1429.12 473.248 1436.42 479.392 1442.56 487.264C1448.71 495.136 1451.78 505.024 1451.78 516.928C1451.78 529.408 1448.71 540.64 1442.56 550.624C1436.42 560.416 1427.49 568.096 1415.78 573.664C1404.07 579.232 1390.15 582.016 1374.02 582.016Z" fill="#5B6065"/>
</svg>
