<svg width="1356" height="673" viewBox="0 0 1356 673" fill="none" xmlns="http://www.w3.org/2000/svg">
<path d="M137.664 217L78.336 128.584V217H14.4V13.096H78.336V98.92L136.8 13.096H209.088L138.816 110.728L213.696 217H137.664ZM295.742 13.096V217H231.806V13.096H295.742ZM409.579 13.096C430.891 13.096 449.515 17.416 465.451 26.056C481.579 34.696 493.963 46.696 502.603 62.056C511.243 77.416 515.563 94.888 515.563 114.472C515.563 133.864 511.243 151.336 502.603 166.888C493.963 182.44 481.579 194.728 465.451 203.752C449.515 212.584 430.891 217 409.579 217H324.619V13.096H409.579ZM403.819 159.976C418.219 159.976 429.643 156.04 438.091 148.168C446.539 140.296 450.763 129.064 450.763 114.472C450.763 99.88 446.539 88.648 438.091 80.776C429.643 72.904 418.219 68.968 403.819 68.968H388.555V159.976H403.819ZM618.426 219.016C594.042 219.016 573.882 213.352 557.946 202.024C542.202 190.504 533.658 173.704 532.314 151.624H600.282C601.242 163.336 606.426 169.192 615.834 169.192C619.29 169.192 622.17 168.424 624.474 166.888C626.97 165.16 628.218 162.568 628.218 159.112C628.218 154.312 625.626 150.472 620.442 147.592C615.258 144.52 607.194 141.064 596.25 137.224C583.194 132.616 572.346 128.104 563.706 123.688C555.258 119.272 547.962 112.84 541.818 104.392C535.674 95.944 532.698 85.096 532.89 71.848C532.89 58.6 536.25 47.368 542.97 38.152C549.882 28.744 559.194 21.64 570.906 16.84C582.81 12.04 596.154 9.63999 610.938 9.63999C635.898 9.63999 655.674 15.4 670.266 26.92C685.05 38.44 692.826 54.664 693.594 75.592H624.762C624.57 69.832 623.13 65.704 620.442 63.208C617.754 60.712 614.49 59.464 610.65 59.464C607.962 59.464 605.754 60.424 604.026 62.344C602.298 64.072 601.434 66.568 601.434 69.832C601.434 74.44 603.93 78.28 608.922 81.352C614.106 84.232 622.266 87.784 633.402 92.008C646.266 96.808 656.826 101.416 665.082 105.832C673.53 110.248 680.826 116.392 686.97 124.264C693.114 132.136 696.186 142.024 696.186 153.928C696.186 166.408 693.114 177.64 686.97 187.624C680.826 197.416 671.898 205.096 660.186 210.664C648.474 216.232 634.554 219.016 618.426 219.016ZM735.354 13.096H798.714L764.73 98.056H722.682L735.354 13.096ZM907.27 219.016C882.886 219.016 862.726 213.352 846.79 202.024C831.046 190.504 822.502 173.704 821.158 151.624H889.126C890.086 163.336 895.27 169.192 904.678 169.192C908.134 169.192 911.014 168.424 913.318 166.888C915.814 165.16 917.062 162.568 917.062 159.112C917.062 154.312 914.47 150.472 909.286 147.592C904.102 144.52 896.038 141.064 885.094 137.224C872.038 132.616 861.19 128.104 852.55 123.688C844.102 119.272 836.806 112.84 830.662 104.392C824.518 95.944 821.542 85.096 821.734 71.848C821.734 58.6 825.094 47.368 831.814 38.152C838.726 28.744 848.038 21.64 859.75 16.84C871.654 12.04 884.998 9.63999 899.782 9.63999C924.742 9.63999 944.518 15.4 959.11 26.92C973.894 38.44 981.67 54.664 982.438 75.592H913.606C913.414 69.832 911.974 65.704 909.286 63.208C906.598 60.712 903.334 59.464 899.494 59.464C896.806 59.464 894.598 60.424 892.87 62.344C891.142 64.072 890.278 66.568 890.278 69.832C890.278 74.44 892.774 78.28 897.766 81.352C902.95 84.232 911.11 87.784 922.246 92.008C935.11 96.808 945.67 101.416 953.926 105.832C962.374 110.248 969.67 116.392 975.814 124.264C981.958 132.136 985.03 142.024 985.03 153.928C985.03 166.408 981.958 177.64 975.814 187.624C969.67 197.416 960.742 205.096 949.03 210.664C937.318 216.232 923.398 219.016 907.27 219.016ZM387.801 519.016C363.417 519.016 343.257 513.352 327.321 502.024C311.577 490.504 303.033 473.704 301.689 451.624H369.657C370.617 463.336 375.801 469.192 385.209 469.192C388.665 469.192 391.545 468.424 393.849 466.888C396.345 465.16 397.593 462.568 397.593 459.112C397.593 454.312 395.001 450.472 389.817 447.592C384.633 444.52 376.569 441.064 365.625 437.224C352.569 432.616 341.721 428.104 333.081 423.688C324.633 419.272 317.337 412.84 311.193 404.392C305.049 395.944 302.073 385.096 302.265 371.848C302.265 358.6 305.625 347.368 312.345 338.152C319.257 328.744 328.569 321.64 340.281 316.84C352.185 312.04 365.529 309.64 380.313 309.64C405.273 309.64 425.049 315.4 439.641 326.92C454.425 338.44 462.201 354.664 462.969 375.592H394.137C393.945 369.832 392.505 365.704 389.817 363.208C387.129 360.712 383.865 359.464 380.025 359.464C377.337 359.464 375.129 360.424 373.401 362.344C371.673 364.072 370.809 366.568 370.809 369.832C370.809 374.44 373.305 378.28 378.297 381.352C383.481 384.232 391.641 387.784 402.777 392.008C415.641 396.808 426.201 401.416 434.457 405.832C442.905 410.248 450.201 416.392 456.345 424.264C462.489 432.136 465.561 442.024 465.561 453.928C465.561 466.408 462.489 477.64 456.345 487.624C450.201 497.416 441.273 505.096 429.561 510.664C417.849 516.232 403.929 519.016 387.801 519.016ZM676.665 313.096V517H612.729V437.512H551.961V517H488.025V313.096H551.961V386.536H612.729V313.096H676.665ZM804.791 519.016C785.591 519.016 767.927 514.504 751.799 505.48C735.863 496.456 723.191 483.976 713.783 468.04C704.375 452.104 699.671 434.152 699.671 414.184C699.671 394.216 704.375 376.264 713.783 360.328C723.191 344.392 735.863 332.008 751.799 323.176C767.927 314.152 785.591 309.64 804.791 309.64C823.991 309.64 841.559 314.152 857.495 323.176C873.431 332.008 886.007 344.392 895.223 360.328C904.631 376.264 909.335 394.216 909.335 414.184C909.335 434.152 904.631 452.104 895.223 468.04C886.007 483.976 873.335 496.456 857.207 505.48C841.271 514.504 823.799 519.016 804.791 519.016ZM804.791 459.4C817.463 459.4 827.255 455.368 834.167 447.304C841.079 439.048 844.535 428.008 844.535 414.184C844.535 400.168 841.079 389.128 834.167 381.064C827.255 372.808 817.463 368.68 804.791 368.68C791.927 368.68 782.039 372.808 775.127 381.064C768.215 389.128 764.759 400.168 764.759 414.184C764.759 428.008 768.215 439.048 775.127 447.304C782.039 455.368 791.927 459.4 804.791 459.4ZM996.336 364.072V389.128H1059.7V437.224H996.336V466.024H1068.34V517H932.4V313.096H1068.34V364.072H996.336ZM1172.21 519.016C1147.82 519.016 1127.66 513.352 1111.73 502.024C1095.98 490.504 1087.44 473.704 1086.1 451.624H1154.06C1155.02 463.336 1160.21 469.192 1169.62 469.192C1173.07 469.192 1175.95 468.424 1178.26 466.888C1180.75 465.16 1182 462.568 1182 459.112C1182 454.312 1179.41 450.472 1174.22 447.592C1169.04 444.52 1160.98 441.064 1150.03 437.224C1136.98 432.616 1126.13 428.104 1117.49 423.688C1109.04 419.272 1101.74 412.84 1095.6 404.392C1089.46 395.944 1086.48 385.096 1086.67 371.848C1086.67 358.6 1090.03 347.368 1096.75 338.152C1103.66 328.744 1112.98 321.64 1124.69 316.84C1136.59 312.04 1149.94 309.64 1164.72 309.64C1189.68 309.64 1209.46 315.4 1224.05 326.92C1238.83 338.44 1246.61 354.664 1247.38 375.592H1178.54C1178.35 369.832 1176.91 365.704 1174.22 363.208C1171.54 360.712 1168.27 359.464 1164.43 359.464C1161.74 359.464 1159.54 360.424 1157.81 362.344C1156.08 364.072 1155.22 366.568 1155.22 369.832C1155.22 374.44 1157.71 378.28 1162.7 381.352C1167.89 384.232 1176.05 387.784 1187.18 392.008C1200.05 396.808 1210.61 401.416 1218.86 405.832C1227.31 410.248 1234.61 416.392 1240.75 424.264C1246.9 432.136 1249.97 442.024 1249.97 453.928C1249.97 466.408 1246.9 477.64 1240.75 487.624C1234.61 497.416 1225.68 505.096 1213.97 510.664C1202.26 516.232 1188.34 519.016 1172.21 519.016Z" fill="#8F969B"/>
<path d="M186.664 243.041L127.336 154.625V243.041H63.4V39.137H127.336V124.961L185.8 39.137H258.088L187.816 136.769L262.696 243.041H186.664ZM344.742 39.137V243.041H280.806V39.137H344.742ZM458.579 39.137C479.891 39.137 498.515 43.457 514.451 52.097C530.579 60.737 542.963 72.737 551.603 88.097C560.243 103.457 564.563 120.929 564.563 140.513C564.563 159.905 560.243 177.377 551.603 192.929C542.963 208.481 530.579 220.769 514.451 229.793C498.515 238.625 479.891 243.041 458.579 243.041H373.619V39.137H458.579ZM452.819 186.017C467.219 186.017 478.643 182.081 487.091 174.209C495.539 166.337 499.763 155.105 499.763 140.513C499.763 125.921 495.539 114.689 487.091 106.817C478.643 98.945 467.219 95.009 452.819 95.009H437.555V186.017H452.819ZM667.426 245.057C643.042 245.057 622.882 239.393 606.946 228.065C591.202 216.545 582.658 199.745 581.314 177.665H649.282C650.242 189.377 655.426 195.233 664.834 195.233C668.29 195.233 671.17 194.465 673.474 192.929C675.97 191.201 677.218 188.609 677.218 185.153C677.218 180.353 674.626 176.513 669.442 173.633C664.258 170.561 656.194 167.105 645.25 163.265C632.194 158.657 621.346 154.145 612.706 149.729C604.258 145.313 596.962 138.881 590.818 130.433C584.674 121.985 581.698 111.137 581.89 97.889C581.89 84.641 585.25 73.409 591.97 64.193C598.882 54.785 608.194 47.681 619.906 42.881C631.81 38.081 645.154 35.681 659.938 35.681C684.898 35.681 704.674 41.441 719.266 52.961C734.05 64.481 741.826 80.705 742.594 101.633H673.762C673.57 95.873 672.13 91.745 669.442 89.249C666.754 86.753 663.49 85.505 659.65 85.505C656.962 85.505 654.754 86.465 653.026 88.385C651.298 90.113 650.434 92.609 650.434 95.873C650.434 100.481 652.93 104.321 657.922 107.393C663.106 110.273 671.266 113.825 682.402 118.049C695.266 122.849 705.826 127.457 714.082 131.873C722.53 136.289 729.826 142.433 735.97 150.305C742.114 158.177 745.186 168.065 745.186 179.969C745.186 192.449 742.114 203.681 735.97 213.665C729.826 223.457 720.898 231.137 709.186 236.705C697.474 242.273 683.554 245.057 667.426 245.057ZM784.354 39.137H847.714L813.73 124.097H771.682L784.354 39.137ZM956.27 245.057C931.886 245.057 911.726 239.393 895.79 228.065C880.046 216.545 871.502 199.745 870.158 177.665H938.126C939.086 189.377 944.27 195.233 953.678 195.233C957.134 195.233 960.014 194.465 962.318 192.929C964.814 191.201 966.062 188.609 966.062 185.153C966.062 180.353 963.47 176.513 958.286 173.633C953.102 170.561 945.038 167.105 934.094 163.265C921.038 158.657 910.19 154.145 901.55 149.729C893.102 145.313 885.806 138.881 879.662 130.433C873.518 121.985 870.542 111.137 870.734 97.889C870.734 84.641 874.094 73.409 880.814 64.193C887.726 54.785 897.038 47.681 908.75 42.881C920.654 38.081 933.998 35.681 948.782 35.681C973.742 35.681 993.518 41.441 1008.11 52.961C1022.89 64.481 1030.67 80.705 1031.44 101.633H962.606C962.414 95.873 960.974 91.745 958.286 89.249C955.598 86.753 952.334 85.505 948.494 85.505C945.806 85.505 943.598 86.465 941.87 88.385C940.142 90.113 939.278 92.609 939.278 95.873C939.278 100.481 941.774 104.321 946.766 107.393C951.95 110.273 960.11 113.825 971.246 118.049C984.11 122.849 994.67 127.457 1002.93 131.873C1011.37 136.289 1018.67 142.433 1024.81 150.305C1030.96 158.177 1034.03 168.065 1034.03 179.969C1034.03 192.449 1030.96 203.681 1024.81 213.665C1018.67 223.457 1009.74 231.137 998.03 236.705C986.318 242.273 972.398 245.057 956.27 245.057ZM436.801 545.057C412.417 545.057 392.257 539.393 376.321 528.065C360.577 516.545 352.033 499.745 350.689 477.665H418.657C419.617 489.377 424.801 495.233 434.209 495.233C437.665 495.233 440.545 494.465 442.849 492.929C445.345 491.201 446.593 488.609 446.593 485.153C446.593 480.353 444.001 476.513 438.817 473.633C433.633 470.561 425.569 467.105 414.625 463.265C401.569 458.657 390.721 454.145 382.081 449.729C373.633 445.313 366.337 438.881 360.193 430.433C354.049 421.985 351.073 411.137 351.265 397.889C351.265 384.641 354.625 373.409 361.345 364.193C368.257 354.785 377.569 347.681 389.281 342.881C401.185 338.081 414.529 335.681 429.313 335.681C454.273 335.681 474.049 341.441 488.641 352.961C503.425 364.481 511.201 380.705 511.969 401.633H443.137C442.945 395.873 441.505 391.745 438.817 389.249C436.129 386.753 432.865 385.505 429.025 385.505C426.337 385.505 424.129 386.465 422.401 388.385C420.673 390.113 419.809 392.609 419.809 395.873C419.809 400.481 422.305 404.321 427.297 407.393C432.481 410.273 440.641 413.825 451.777 418.049C464.641 422.849 475.201 427.457 483.457 431.873C491.905 436.289 499.201 442.433 505.345 450.305C511.489 458.177 514.561 468.065 514.561 479.969C514.561 492.449 511.489 503.681 505.345 513.665C499.201 523.457 490.273 531.137 478.561 536.705C466.849 542.273 452.929 545.057 436.801 545.057ZM725.665 339.137V543.041H661.729V463.553H600.961V543.041H537.025V339.137H600.961V412.577H661.729V339.137H725.665ZM853.791 545.057C834.591 545.057 816.927 540.545 800.799 531.521C784.863 522.497 772.191 510.017 762.783 494.081C753.375 478.145 748.671 460.193 748.671 440.225C748.671 420.257 753.375 402.305 762.783 386.369C772.191 370.433 784.863 358.049 800.799 349.217C816.927 340.193 834.591 335.681 853.791 335.681C872.991 335.681 890.559 340.193 906.495 349.217C922.431 358.049 935.007 370.433 944.223 386.369C953.631 402.305 958.335 420.257 958.335 440.225C958.335 460.193 953.631 478.145 944.223 494.081C935.007 510.017 922.335 522.497 906.207 531.521C890.271 540.545 872.799 545.057 853.791 545.057ZM853.791 485.441C866.463 485.441 876.255 481.409 883.167 473.345C890.079 465.089 893.535 454.049 893.535 440.225C893.535 426.209 890.079 415.169 883.167 407.105C876.255 398.849 866.463 394.721 853.791 394.721C840.927 394.721 831.039 398.849 824.127 407.105C817.215 415.169 813.759 426.209 813.759 440.225C813.759 454.049 817.215 465.089 824.127 473.345C831.039 481.409 840.927 485.441 853.791 485.441ZM1045.34 390.113V415.169H1108.7V463.265H1045.34V492.065H1117.34V543.041H981.4V339.137H1117.34V390.113H1045.34ZM1221.21 545.057C1196.82 545.057 1176.66 539.393 1160.73 528.065C1144.98 516.545 1136.44 499.745 1135.1 477.665H1203.06C1204.02 489.377 1209.21 495.233 1218.62 495.233C1222.07 495.233 1224.95 494.465 1227.26 492.929C1229.75 491.201 1231 488.609 1231 485.153C1231 480.353 1228.41 476.513 1223.22 473.633C1218.04 470.561 1209.98 467.105 1199.03 463.265C1185.98 458.657 1175.13 454.145 1166.49 449.729C1158.04 445.313 1150.74 438.881 1144.6 430.433C1138.46 421.985 1135.48 411.137 1135.67 397.889C1135.67 384.641 1139.03 373.409 1145.75 364.193C1152.66 354.785 1161.98 347.681 1173.69 342.881C1185.59 338.081 1198.94 335.681 1213.72 335.681C1238.68 335.681 1258.46 341.441 1273.05 352.961C1287.83 364.481 1295.61 380.705 1296.38 401.633H1227.54C1227.35 395.873 1225.91 391.745 1223.22 389.249C1220.54 386.753 1217.27 385.505 1213.43 385.505C1210.74 385.505 1208.54 386.465 1206.81 388.385C1205.08 390.113 1204.22 392.609 1204.22 395.873C1204.22 400.481 1206.71 404.321 1211.7 407.393C1216.89 410.273 1225.05 413.825 1236.18 418.049C1249.05 422.849 1259.61 427.457 1267.86 431.873C1276.31 436.289 1283.61 442.433 1289.75 450.305C1295.9 458.177 1298.97 468.065 1298.97 479.969C1298.97 492.449 1295.9 503.681 1289.75 513.665C1283.61 523.457 1274.68 531.137 1262.97 536.705C1251.26 542.273 1237.34 545.057 1221.21 545.057Z" fill="#5B6065"/>
</svg>
