<svg width="795" height="566" viewBox="0 0 795 566" fill="none" xmlns="http://www.w3.org/2000/svg">
<path d="M352.071 0.485912C329.276 2.59422 294.88 9.81113 265.919 18.5687C180.416 44.4361 114.139 89.2782 69.3596 151.635C31.7999 204.019 10.3836 264.187 1.46009 342.6C-0.000112815 355.736 0.243255 389.145 1.8657 400.011C10.2213 454.583 34.558 496.993 75.0382 527.482C109.84 553.755 145.29 565.432 189.421 565.432C241.907 565.27 287.579 546.457 322.948 510.372C338.605 494.317 348.177 480.775 358.804 459.368C368.134 440.555 372.595 427.581 375.272 411.525C377.219 400.173 377.463 358.493 375.678 346.249C373.163 328.328 367.079 310.164 357.344 291.27C338.443 254.943 307.454 224.778 269.975 206.37C250.506 196.802 232.984 191.612 211.892 189.261C198.101 187.801 194.694 186.909 194.694 184.963C194.694 182.611 202.4 168.259 208.809 158.609C216.191 147.581 223.979 138.418 238.824 123.66C270.787 91.7919 292.284 76.7094 358.967 39.3275C369.107 33.6512 375.029 29.3535 376.408 26.6776C378.193 23.5151 378.679 17.6767 377.706 13.7034C376.408 8.91915 372.839 3.56729 369.756 1.94551C367.403 0.729178 358.155 -0.000621423 352.071 0.485912Z" fill="white"/>
<path d="M764.173 0.891973C741.053 2.8381 693.678 13.7851 664.393 23.9212C639.975 32.4355 605.903 48.0857 586.921 59.6003C559.177 76.3857 537.598 93.4143 515.939 115.633C476.838 155.772 449.499 203.695 432.788 261.511C418.267 311.949 413.319 365.711 419.484 406.498C423.54 433.258 434.167 460.99 448.526 482.316C473.025 518.806 511.882 547.187 553.093 558.783C583.514 567.297 622.452 567.865 652.305 560.324C697.166 548.89 737.16 520.104 763.849 480.046C779.505 456.53 787.861 433.987 792.242 403.417C794.27 389.794 794.27 360.602 792.323 348.033C781.696 279.919 730.021 218.778 665.204 197.532C651.575 193.072 642.084 191.045 627.482 189.342C611.339 187.558 611.42 187.558 612.555 182.288C615.314 170.287 633.972 144.014 654.252 123.66C680.779 97.0633 714.526 72.8989 762.551 46.2206C781.209 35.8413 787.699 31.6246 791.349 27.408C794.756 23.3536 795.568 19.7857 794.27 14.2716C791.674 2.91919 783.399 -0.729803 764.173 0.891973Z" fill="white"/>
</svg>
