<svg width="1712" height="772" viewBox="0 0 1712 772" fill="none" xmlns="http://www.w3.org/2000/svg">
<path d="M321.474 138.096V342H257.826V240.336L226.434 342H171.714L140.322 240.336V342H76.3863V138.096H154.722L199.65 260.496L243.426 138.096H321.474ZM414.26 189.072V214.128H477.62V262.224H414.26V291.024H486.26V342H350.324V138.096H486.26V189.072H414.26ZM705.907 342H641.971L574.291 239.472V342H510.355V138.096H574.291L641.971 242.352V138.096H705.907V342ZM751.497 138.096H814.857L780.873 223.056H738.825L751.497 138.096ZM923.412 344.016C899.028 344.016 878.868 338.352 862.932 327.024C847.188 315.504 838.644 298.704 837.3 276.624H905.268C906.228 288.336 911.412 294.192 920.82 294.192C924.276 294.192 927.156 293.424 929.46 291.888C931.956 290.16 933.204 287.568 933.204 284.112C933.204 279.312 930.612 275.472 925.428 272.592C920.244 269.52 912.18 266.064 901.236 262.224C888.18 257.616 877.332 253.104 868.692 248.688C860.244 244.272 852.948 237.84 846.804 229.392C840.66 220.944 837.684 210.096 837.876 196.848C837.876 183.6 841.236 172.368 847.956 163.152C854.868 153.744 864.18 146.64 875.892 141.84C887.796 137.04 901.14 134.64 915.924 134.64C940.884 134.64 960.66 140.4 975.252 151.92C990.036 163.44 997.812 179.664 998.58 200.592H929.748C929.556 194.832 928.116 190.704 925.428 188.208C922.74 185.712 919.476 184.464 915.636 184.464C912.948 184.464 910.74 185.424 909.012 187.344C907.284 189.072 906.42 191.568 906.42 194.832C906.42 199.44 908.916 203.28 913.908 206.352C919.092 209.232 927.252 212.784 938.388 217.008C951.252 221.808 961.812 226.416 970.068 230.832C978.516 235.248 985.812 241.392 991.956 249.264C998.1 257.136 1001.17 267.024 1001.17 278.928C1001.17 291.408 998.1 302.64 991.956 312.624C985.812 322.416 976.884 330.096 965.172 335.664C953.46 341.232 939.54 344.016 923.412 344.016ZM498.725 644.016C474.341 644.016 454.181 638.352 438.245 627.024C422.501 615.504 413.957 598.704 412.613 576.624H480.581C481.541 588.336 486.725 594.192 496.133 594.192C499.589 594.192 502.469 593.424 504.773 591.888C507.269 590.16 508.517 587.568 508.517 584.112C508.517 579.312 505.925 575.472 500.741 572.592C495.557 569.52 487.493 566.064 476.549 562.224C463.493 557.616 452.645 553.104 444.005 548.688C435.557 544.272 428.261 537.84 422.117 529.392C415.973 520.944 412.997 510.096 413.189 496.848C413.189 483.6 416.549 472.368 423.269 463.152C430.181 453.744 439.493 446.64 451.205 441.84C463.109 437.04 476.453 434.64 491.237 434.64C516.197 434.64 535.973 440.4 550.565 451.92C565.349 463.44 573.125 479.664 573.893 500.592H505.061C504.869 494.832 503.429 490.704 500.741 488.208C498.053 485.712 494.789 484.464 490.949 484.464C488.261 484.464 486.053 485.424 484.325 487.344C482.597 489.072 481.733 491.568 481.733 494.832C481.733 499.44 484.229 503.28 489.221 506.352C494.405 509.232 502.565 512.784 513.701 517.008C526.565 521.808 537.125 526.416 545.381 530.832C553.829 535.248 561.125 541.392 567.269 549.264C573.413 557.136 576.485 567.024 576.485 578.928C576.485 591.408 573.413 602.64 567.269 612.624C561.125 622.416 552.197 630.096 540.485 635.664C528.773 641.232 514.853 644.016 498.725 644.016ZM787.589 438.096V642H723.653V562.512H662.885V642H598.949V438.096H662.885V511.536H723.653V438.096H787.589ZM915.715 644.016C896.515 644.016 878.851 639.504 862.723 630.48C846.787 621.456 834.115 608.976 824.707 593.04C815.299 577.104 810.595 559.152 810.595 539.184C810.595 519.216 815.299 501.264 824.707 485.328C834.115 469.392 846.787 457.008 862.723 448.176C878.851 439.152 896.515 434.64 915.715 434.64C934.915 434.64 952.483 439.152 968.419 448.176C984.355 457.008 996.931 469.392 1006.15 485.328C1015.56 501.264 1020.26 519.216 1020.26 539.184C1020.26 559.152 1015.56 577.104 1006.15 593.04C996.931 608.976 984.259 621.456 968.131 630.48C952.195 639.504 934.723 644.016 915.715 644.016ZM915.715 584.4C928.387 584.4 938.179 580.368 945.091 572.304C952.003 564.048 955.459 553.008 955.459 539.184C955.459 525.168 952.003 514.128 945.091 506.064C938.179 497.808 928.387 493.68 915.715 493.68C902.851 493.68 892.963 497.808 886.051 506.064C879.139 514.128 875.683 525.168 875.683 539.184C875.683 553.008 879.139 564.048 886.051 572.304C892.963 580.368 902.851 584.4 915.715 584.4ZM1107.26 489.072V514.128H1170.62V562.224H1107.26V591.024H1179.26V642H1043.32V438.096H1179.26V489.072H1107.26ZM1283.13 644.016C1258.75 644.016 1238.59 638.352 1222.65 627.024C1206.91 615.504 1198.36 598.704 1197.02 576.624H1264.99C1265.95 588.336 1271.13 594.192 1280.54 594.192C1284 594.192 1286.88 593.424 1289.18 591.888C1291.68 590.16 1292.92 587.568 1292.92 584.112C1292.92 579.312 1290.33 575.472 1285.15 572.592C1279.96 569.52 1271.9 566.064 1260.96 562.224C1247.9 557.616 1237.05 553.104 1228.41 548.688C1219.96 544.272 1212.67 537.84 1206.52 529.392C1200.38 520.944 1197.4 510.096 1197.6 496.848C1197.6 483.6 1200.96 472.368 1207.68 463.152C1214.59 453.744 1223.9 446.64 1235.61 441.84C1247.52 437.04 1260.86 434.64 1275.64 434.64C1300.6 434.64 1320.38 440.4 1334.97 451.92C1349.76 463.44 1357.53 479.664 1358.3 500.592H1289.47C1289.28 494.832 1287.84 490.704 1285.15 488.208C1282.46 485.712 1279.2 484.464 1275.36 484.464C1272.67 484.464 1270.46 485.424 1268.73 487.344C1267 489.072 1266.14 491.568 1266.14 494.832C1266.14 499.44 1268.64 503.28 1273.63 506.352C1278.81 509.232 1286.97 512.784 1298.11 517.008C1310.97 521.808 1321.53 526.416 1329.79 530.832C1338.24 535.248 1345.53 541.392 1351.68 549.264C1357.82 557.136 1360.89 567.024 1360.89 578.928C1360.89 591.408 1357.82 602.64 1351.68 612.624C1345.53 622.416 1336.6 630.096 1324.89 635.664C1313.18 641.232 1299.26 644.016 1283.13 644.016Z" fill="#8F969B"/>
<path d="M369.686 182.096V386H306.038V284.336L274.646 386H219.926L188.534 284.336V386H124.598V182.096H202.934L247.862 304.496L291.638 182.096H369.686ZM462.471 233.072V258.128H525.831V306.224H462.471V335.024H534.471V386H398.535V182.096H534.471V233.072H462.471ZM754.118 386H690.182L622.502 283.472V386H558.566V182.096H622.502L690.182 286.352V182.096H754.118V386ZM799.708 182.096H863.068L829.084 267.056H787.036L799.708 182.096ZM971.624 388.016C947.24 388.016 927.08 382.352 911.144 371.024C895.4 359.504 886.856 342.704 885.512 320.624H953.48C954.44 332.336 959.624 338.192 969.032 338.192C972.488 338.192 975.368 337.424 977.672 335.888C980.168 334.16 981.416 331.568 981.416 328.112C981.416 323.312 978.824 319.472 973.64 316.592C968.456 313.52 960.392 310.064 949.448 306.224C936.392 301.616 925.544 297.104 916.904 292.688C908.456 288.272 901.16 281.84 895.016 273.392C888.872 264.944 885.896 254.096 886.088 240.848C886.088 227.6 889.448 216.368 896.168 207.152C903.08 197.744 912.392 190.64 924.104 185.84C936.008 181.04 949.352 178.64 964.136 178.64C989.096 178.64 1008.87 184.4 1023.46 195.92C1038.25 207.44 1046.02 223.664 1046.79 244.592H977.96C977.768 238.832 976.328 234.704 973.64 232.208C970.952 229.712 967.688 228.464 963.848 228.464C961.16 228.464 958.952 229.424 957.224 231.344C955.496 233.072 954.632 235.568 954.632 238.832C954.632 243.44 957.128 247.28 962.12 250.352C967.304 253.232 975.464 256.784 986.6 261.008C999.464 265.808 1010.02 270.416 1018.28 274.832C1026.73 279.248 1034.02 285.392 1040.17 293.264C1046.31 301.136 1049.38 311.024 1049.38 322.928C1049.38 335.408 1046.31 346.64 1040.17 356.624C1034.02 366.416 1025.1 374.096 1013.38 379.664C1001.67 385.232 987.752 388.016 971.624 388.016ZM546.936 688.016C522.552 688.016 502.392 682.352 486.456 671.024C470.712 659.504 462.168 642.704 460.824 620.624H528.792C529.752 632.336 534.936 638.192 544.344 638.192C547.8 638.192 550.68 637.424 552.984 635.888C555.48 634.16 556.728 631.568 556.728 628.112C556.728 623.312 554.136 619.472 548.952 616.592C543.768 613.52 535.704 610.064 524.76 606.224C511.704 601.616 500.856 597.104 492.216 592.688C483.768 588.272 476.472 581.84 470.328 573.392C464.184 564.944 461.208 554.096 461.4 540.848C461.4 527.6 464.76 516.368 471.48 507.152C478.392 497.744 487.704 490.64 499.416 485.84C511.32 481.04 524.664 478.64 539.448 478.64C564.408 478.64 584.184 484.4 598.776 495.92C613.56 507.44 621.336 523.664 622.104 544.592H553.272C553.08 538.832 551.64 534.704 548.952 532.208C546.264 529.712 543 528.464 539.16 528.464C536.472 528.464 534.264 529.424 532.536 531.344C530.808 533.072 529.944 535.568 529.944 538.832C529.944 543.44 532.44 547.28 537.432 550.352C542.616 553.232 550.776 556.784 561.912 561.008C574.776 565.808 585.336 570.416 593.592 574.832C602.04 579.248 609.336 585.392 615.48 593.264C621.624 601.136 624.696 611.024 624.696 622.928C624.696 635.408 621.624 646.64 615.48 656.624C609.336 666.416 600.408 674.096 588.696 679.664C576.984 685.232 563.064 688.016 546.936 688.016ZM835.8 482.096V686H771.864V606.512H711.096V686H647.16V482.096H711.096V555.536H771.864V482.096H835.8ZM963.926 688.016C944.726 688.016 927.062 683.504 910.934 674.48C894.998 665.456 882.326 652.976 872.918 637.04C863.51 621.104 858.806 603.152 858.806 583.184C858.806 563.216 863.51 545.264 872.918 529.328C882.326 513.392 894.998 501.008 910.934 492.176C927.062 483.152 944.726 478.64 963.926 478.64C983.126 478.64 1000.69 483.152 1016.63 492.176C1032.57 501.008 1045.14 513.392 1054.36 529.328C1063.77 545.264 1068.47 563.216 1068.47 583.184C1068.47 603.152 1063.77 621.104 1054.36 637.04C1045.14 652.976 1032.47 665.456 1016.34 674.48C1000.41 683.504 982.934 688.016 963.926 688.016ZM963.926 628.4C976.598 628.4 986.39 624.368 993.302 616.304C1000.21 608.048 1003.67 597.008 1003.67 583.184C1003.67 569.168 1000.21 558.128 993.302 550.064C986.39 541.808 976.598 537.68 963.926 537.68C951.062 537.68 941.174 541.808 934.262 550.064C927.35 558.128 923.894 569.168 923.894 583.184C923.894 597.008 927.35 608.048 934.262 616.304C941.174 624.368 951.062 628.4 963.926 628.4ZM1155.47 533.072V558.128H1218.83V606.224H1155.47V635.024H1227.47V686H1091.54V482.096H1227.47V533.072H1155.47ZM1331.34 688.016C1306.96 688.016 1286.8 682.352 1270.86 671.024C1255.12 659.504 1246.57 642.704 1245.23 620.624H1313.2C1314.16 632.336 1319.34 638.192 1328.75 638.192C1332.21 638.192 1335.09 637.424 1337.39 635.888C1339.89 634.16 1341.13 631.568 1341.13 628.112C1341.13 623.312 1338.54 619.472 1333.36 616.592C1328.17 613.52 1320.11 610.064 1309.17 606.224C1296.11 601.616 1285.26 597.104 1276.62 592.688C1268.17 588.272 1260.88 581.84 1254.73 573.392C1248.59 564.944 1245.61 554.096 1245.81 540.848C1245.81 527.6 1249.17 516.368 1255.89 507.152C1262.8 497.744 1272.11 490.64 1283.82 485.84C1295.73 481.04 1309.07 478.64 1323.85 478.64C1348.81 478.64 1368.59 484.4 1383.18 495.92C1397.97 507.44 1405.74 523.664 1406.51 544.592H1337.68C1337.49 538.832 1336.05 534.704 1333.36 532.208C1330.67 529.712 1327.41 528.464 1323.57 528.464C1320.88 528.464 1318.67 529.424 1316.94 531.344C1315.21 533.072 1314.35 535.568 1314.35 538.832C1314.35 543.44 1316.85 547.28 1321.84 550.352C1327.02 553.232 1335.18 556.784 1346.32 561.008C1359.18 565.808 1369.74 570.416 1378 574.832C1386.45 579.248 1393.74 585.392 1399.89 593.264C1406.03 601.136 1409.1 611.024 1409.1 622.928C1409.1 635.408 1406.03 646.64 1399.89 656.624C1393.74 666.416 1384.81 674.096 1373.1 679.664C1361.39 685.232 1347.47 688.016 1331.34 688.016Z" fill="#5B6065"/>
</svg>
