<svg width="1851" height="835" viewBox="0 0 1851 835" fill="none" xmlns="http://www.w3.org/2000/svg">
<path d="M308.16 146.096L261.504 350H182.016L158.4 234.224L134.784 350H55.296L8.64 146.096H77.472L95.904 274.544L123.552 146.096H193.248L220.896 274.544L239.328 146.096H308.16ZM430.448 352.016C411.248 352.016 393.584 347.504 377.456 338.48C361.52 329.456 348.848 316.976 339.44 301.04C330.032 285.104 325.328 267.152 325.328 247.184C325.328 227.216 330.032 209.264 339.44 193.328C348.848 177.392 361.52 165.008 377.456 156.176C393.584 147.152 411.248 142.64 430.448 142.64C449.648 142.64 467.216 147.152 483.152 156.176C499.088 165.008 511.664 177.392 520.88 193.328C530.288 209.264 534.992 227.216 534.992 247.184C534.992 267.152 530.288 285.104 520.88 301.04C511.664 316.976 498.992 329.456 482.864 338.48C466.928 347.504 449.456 352.016 430.448 352.016ZM430.448 292.4C443.12 292.4 452.912 288.368 459.824 280.304C466.736 272.048 470.192 261.008 470.192 247.184C470.192 233.168 466.736 222.128 459.824 214.064C452.912 205.808 443.12 201.68 430.448 201.68C417.584 201.68 407.696 205.808 400.784 214.064C393.872 222.128 390.416 233.168 390.416 247.184C390.416 261.008 393.872 272.048 400.784 280.304C407.696 288.368 417.584 292.4 430.448 292.4ZM803.144 146.096V350H739.496V248.336L708.104 350H653.384L621.992 248.336V350H558.056V146.096H636.392L681.32 268.496L725.096 146.096H803.144ZM895.93 197.072V222.128H959.29V270.224H895.93V299.024H967.93V350H831.994V146.096H967.93V197.072H895.93ZM1187.58 350H1123.64L1055.96 247.472V350H992.025V146.096H1055.96L1123.64 250.352V146.096H1187.58V350ZM1233.17 146.096H1296.53L1262.54 231.056H1220.49L1233.17 146.096ZM1405.08 352.016C1380.7 352.016 1360.54 346.352 1344.6 335.024C1328.86 323.504 1320.31 306.704 1318.97 284.624H1386.94C1387.9 296.336 1393.08 302.192 1402.49 302.192C1405.95 302.192 1408.83 301.424 1411.13 299.888C1413.63 298.16 1414.87 295.568 1414.87 292.112C1414.87 287.312 1412.28 283.472 1407.1 280.592C1401.91 277.52 1393.85 274.064 1382.91 270.224C1369.85 265.616 1359 261.104 1350.36 256.688C1341.91 252.272 1334.62 245.84 1328.47 237.392C1322.33 228.944 1319.35 218.096 1319.55 204.848C1319.55 191.6 1322.91 180.368 1329.63 171.152C1336.54 161.744 1345.85 154.64 1357.56 149.84C1369.47 145.04 1382.81 142.64 1397.59 142.64C1422.55 142.64 1442.33 148.4 1456.92 159.92C1471.71 171.44 1479.48 187.664 1480.25 208.592H1411.42C1411.23 202.832 1409.79 198.704 1407.1 196.208C1404.41 193.712 1401.15 192.464 1397.31 192.464C1394.62 192.464 1392.41 193.424 1390.68 195.344C1388.95 197.072 1388.09 199.568 1388.09 202.832C1388.09 207.44 1390.59 211.28 1395.58 214.352C1400.76 217.232 1408.92 220.784 1420.06 225.008C1432.92 229.808 1443.48 234.416 1451.74 238.832C1460.19 243.248 1467.48 249.392 1473.63 257.264C1479.77 265.136 1482.84 275.024 1482.84 286.928C1482.84 299.408 1479.77 310.64 1473.63 320.624C1467.48 330.416 1458.55 338.096 1446.84 343.664C1435.13 349.232 1421.21 352.016 1405.08 352.016ZM828.239 682.016C803.855 682.016 783.695 676.352 767.759 665.024C752.015 653.504 743.471 636.704 742.127 614.624H810.094C811.055 626.336 816.239 632.192 825.647 632.192C829.103 632.192 831.983 631.424 834.287 629.888C836.783 628.16 838.031 625.568 838.031 622.112C838.031 617.312 835.439 613.472 830.255 610.592C825.071 607.52 817.007 604.064 806.062 600.224C793.007 595.616 782.159 591.104 773.519 586.688C765.071 582.272 757.775 575.84 751.631 567.392C745.487 558.944 742.511 548.096 742.703 534.848C742.703 521.6 746.063 510.368 752.783 501.152C759.695 491.744 769.007 484.64 780.719 479.84C792.623 475.04 805.967 472.64 820.751 472.64C845.711 472.64 865.487 478.4 880.079 489.92C894.863 501.44 902.639 517.664 903.406 538.592H834.575C834.383 532.832 832.943 528.704 830.255 526.208C827.567 523.712 824.303 522.464 820.463 522.464C817.775 522.464 815.567 523.424 813.839 525.344C812.111 527.072 811.247 529.568 811.247 532.832C811.247 537.44 813.743 541.28 818.734 544.352C823.919 547.232 832.079 550.784 843.215 555.008C856.079 559.808 866.639 564.416 874.895 568.832C883.343 573.248 890.639 579.392 896.782 587.264C902.927 595.136 905.999 605.024 905.999 616.928C905.999 629.408 902.927 640.64 896.782 650.624C890.639 660.416 881.711 668.096 869.999 673.664C858.287 679.232 844.367 682.016 828.239 682.016ZM1117.1 476.096V680H1053.17V600.512H992.399V680H928.463V476.096H992.399V549.536H1053.17V476.096H1117.1ZM1245.23 682.016C1226.03 682.016 1208.36 677.504 1192.24 668.48C1176.3 659.456 1163.63 646.976 1154.22 631.04C1144.81 615.104 1140.11 597.152 1140.11 577.184C1140.11 557.216 1144.81 539.264 1154.22 523.328C1163.63 507.392 1176.3 495.008 1192.24 486.176C1208.36 477.152 1226.03 472.64 1245.23 472.64C1264.43 472.64 1282 477.152 1297.93 486.176C1313.87 495.008 1326.44 507.392 1335.66 523.328C1345.07 539.264 1349.77 557.216 1349.77 577.184C1349.77 597.152 1345.07 615.104 1335.66 631.04C1326.44 646.976 1313.77 659.456 1297.64 668.48C1281.71 677.504 1264.24 682.016 1245.23 682.016ZM1245.23 622.4C1257.9 622.4 1267.69 618.368 1274.6 610.304C1281.52 602.048 1284.97 591.008 1284.97 577.184C1284.97 563.168 1281.52 552.128 1274.6 544.064C1267.69 535.808 1257.9 531.68 1245.23 531.68C1232.36 531.68 1222.48 535.808 1215.56 544.064C1208.65 552.128 1205.2 563.168 1205.2 577.184C1205.2 591.008 1208.65 602.048 1215.56 610.304C1222.48 618.368 1232.36 622.4 1245.23 622.4ZM1436.77 527.072V552.128H1500.13V600.224H1436.77V629.024H1508.77V680H1372.84V476.096H1508.77V527.072H1436.77ZM1612.64 682.016C1588.26 682.016 1568.1 676.352 1552.16 665.024C1536.42 653.504 1527.88 636.704 1526.53 614.624H1594.5C1595.46 626.336 1600.64 632.192 1610.05 632.192C1613.51 632.192 1616.39 631.424 1618.69 629.888C1621.19 628.16 1622.44 625.568 1622.44 622.112C1622.44 617.312 1619.84 613.472 1614.66 610.592C1609.48 607.52 1601.41 604.064 1590.47 600.224C1577.41 595.616 1566.56 591.104 1557.92 586.688C1549.48 582.272 1542.18 575.84 1536.04 567.392C1529.89 558.944 1526.92 548.096 1527.11 534.848C1527.11 521.6 1530.47 510.368 1537.19 501.152C1544.1 491.744 1553.41 484.64 1565.12 479.84C1577.03 475.04 1590.37 472.64 1605.16 472.64C1630.12 472.64 1649.89 478.4 1664.48 489.92C1679.27 501.44 1687.04 517.664 1687.81 538.592H1618.98C1618.79 532.832 1617.35 528.704 1614.66 526.208C1611.97 523.712 1608.71 522.464 1604.87 522.464C1602.18 522.464 1599.97 523.424 1598.24 525.344C1596.52 527.072 1595.65 529.568 1595.65 532.832C1595.65 537.44 1598.15 541.28 1603.14 544.352C1608.32 547.232 1616.48 550.784 1627.62 555.008C1640.48 559.808 1651.04 564.416 1659.3 568.832C1667.75 573.248 1675.04 579.392 1681.19 587.264C1687.33 595.136 1690.4 605.024 1690.4 616.928C1690.4 629.408 1687.33 640.64 1681.19 650.624C1675.04 660.416 1666.12 668.096 1654.4 673.664C1642.69 679.232 1628.77 682.016 1612.64 682.016Z" fill="#8F969B"/>
<path d="M353.16 201.096L306.504 405H227.016L203.4 289.224L179.784 405H100.296L53.64 201.096H122.472L140.904 329.544L168.552 201.096H238.248L265.896 329.544L284.328 201.096H353.16ZM475.448 407.016C456.248 407.016 438.584 402.504 422.456 393.48C406.52 384.456 393.848 371.976 384.44 356.04C375.032 340.104 370.328 322.152 370.328 302.184C370.328 282.216 375.032 264.264 384.44 248.328C393.848 232.392 406.52 220.008 422.456 211.176C438.584 202.152 456.248 197.64 475.448 197.64C494.648 197.64 512.216 202.152 528.152 211.176C544.088 220.008 556.664 232.392 565.88 248.328C575.288 264.264 579.992 282.216 579.992 302.184C579.992 322.152 575.288 340.104 565.88 356.04C556.664 371.976 543.992 384.456 527.864 393.48C511.928 402.504 494.456 407.016 475.448 407.016ZM475.448 347.4C488.12 347.4 497.912 343.368 504.824 335.304C511.736 327.048 515.192 316.008 515.192 302.184C515.192 288.168 511.736 277.128 504.824 269.064C497.912 260.808 488.12 256.68 475.448 256.68C462.584 256.68 452.696 260.808 445.784 269.064C438.872 277.128 435.416 288.168 435.416 302.184C435.416 316.008 438.872 327.048 445.784 335.304C452.696 343.368 462.584 347.4 475.448 347.4ZM848.144 201.096V405H784.496V303.336L753.104 405H698.384L666.992 303.336V405H603.056V201.096H681.392L726.32 323.496L770.096 201.096H848.144ZM940.93 252.072V277.128H1004.29V325.224H940.93V354.024H1012.93V405H876.994V201.096H1012.93V252.072H940.93ZM1232.58 405H1168.64L1100.96 302.472V405H1037.03V201.096H1100.96L1168.64 305.352V201.096H1232.58V405ZM1278.17 201.096H1341.53L1307.54 286.056H1265.49L1278.17 201.096ZM1450.08 407.016C1425.7 407.016 1405.54 401.352 1389.6 390.024C1373.86 378.504 1365.31 361.704 1363.97 339.624H1431.94C1432.9 351.336 1438.08 357.192 1447.49 357.192C1450.95 357.192 1453.83 356.424 1456.13 354.888C1458.63 353.16 1459.87 350.568 1459.87 347.112C1459.87 342.312 1457.28 338.472 1452.1 335.592C1446.91 332.52 1438.85 329.064 1427.91 325.224C1414.85 320.616 1404 316.104 1395.36 311.688C1386.91 307.272 1379.62 300.84 1373.47 292.392C1367.33 283.944 1364.35 273.096 1364.55 259.848C1364.55 246.6 1367.91 235.368 1374.63 226.152C1381.54 216.744 1390.85 209.64 1402.56 204.84C1414.47 200.04 1427.81 197.64 1442.59 197.64C1467.55 197.64 1487.33 203.4 1501.92 214.92C1516.71 226.44 1524.48 242.664 1525.25 263.592H1456.42C1456.23 257.832 1454.79 253.704 1452.1 251.208C1449.41 248.712 1446.15 247.464 1442.31 247.464C1439.62 247.464 1437.41 248.424 1435.68 250.344C1433.95 252.072 1433.09 254.568 1433.09 257.832C1433.09 262.44 1435.59 266.28 1440.58 269.352C1445.76 272.232 1453.92 275.784 1465.06 280.008C1477.92 284.808 1488.48 289.416 1496.74 293.832C1505.19 298.248 1512.48 304.392 1518.63 312.264C1524.77 320.136 1527.84 330.024 1527.84 341.928C1527.84 354.408 1524.77 365.64 1518.63 375.624C1512.48 385.416 1503.55 393.096 1491.84 398.664C1480.13 404.232 1466.21 407.016 1450.08 407.016ZM873.239 707.016C848.855 707.016 828.695 701.352 812.759 690.024C797.015 678.504 788.471 661.704 787.127 639.624H855.094C856.055 651.336 861.239 657.192 870.647 657.192C874.103 657.192 876.983 656.424 879.287 654.888C881.783 653.16 883.031 650.568 883.031 647.112C883.031 642.312 880.439 638.472 875.255 635.592C870.071 632.52 862.007 629.064 851.062 625.224C838.007 620.616 827.159 616.104 818.519 611.688C810.071 607.272 802.775 600.84 796.631 592.392C790.487 583.944 787.511 573.096 787.703 559.848C787.703 546.6 791.063 535.368 797.783 526.152C804.695 516.744 814.007 509.64 825.719 504.84C837.623 500.04 850.967 497.64 865.751 497.64C890.711 497.64 910.487 503.4 925.079 514.92C939.863 526.44 947.639 542.664 948.406 563.592H879.575C879.383 557.832 877.943 553.704 875.255 551.208C872.567 548.712 869.303 547.464 865.463 547.464C862.775 547.464 860.567 548.424 858.839 550.344C857.111 552.072 856.247 554.568 856.247 557.832C856.247 562.44 858.743 566.28 863.734 569.352C868.919 572.232 877.079 575.784 888.215 580.008C901.079 584.808 911.639 589.416 919.895 593.832C928.343 598.248 935.639 604.392 941.782 612.264C947.927 620.136 950.999 630.024 950.999 641.928C950.999 654.408 947.927 665.64 941.782 675.624C935.639 685.416 926.711 693.096 914.999 698.664C903.287 704.232 889.367 707.016 873.239 707.016ZM1162.1 501.096V705H1098.17V625.512H1037.4V705H973.463V501.096H1037.4V574.536H1098.17V501.096H1162.1ZM1290.23 707.016C1271.03 707.016 1253.36 702.504 1237.24 693.48C1221.3 684.456 1208.63 671.976 1199.22 656.04C1189.81 640.104 1185.11 622.152 1185.11 602.184C1185.11 582.216 1189.81 564.264 1199.22 548.328C1208.63 532.392 1221.3 520.008 1237.24 511.176C1253.36 502.152 1271.03 497.64 1290.23 497.64C1309.43 497.64 1327 502.152 1342.93 511.176C1358.87 520.008 1371.44 532.392 1380.66 548.328C1390.07 564.264 1394.77 582.216 1394.77 602.184C1394.77 622.152 1390.07 640.104 1380.66 656.04C1371.44 671.976 1358.77 684.456 1342.64 693.48C1326.71 702.504 1309.24 707.016 1290.23 707.016ZM1290.23 647.4C1302.9 647.4 1312.69 643.368 1319.6 635.304C1326.52 627.048 1329.97 616.008 1329.97 602.184C1329.97 588.168 1326.52 577.128 1319.6 569.064C1312.69 560.808 1302.9 556.68 1290.23 556.68C1277.36 556.68 1267.48 560.808 1260.56 569.064C1253.65 577.128 1250.2 588.168 1250.2 602.184C1250.2 616.008 1253.65 627.048 1260.56 635.304C1267.48 643.368 1277.36 647.4 1290.23 647.4ZM1481.77 552.072V577.128H1545.13V625.224H1481.77V654.024H1553.77V705H1417.84V501.096H1553.77V552.072H1481.77ZM1657.64 707.016C1633.26 707.016 1613.1 701.352 1597.16 690.024C1581.42 678.504 1572.88 661.704 1571.53 639.624H1639.5C1640.46 651.336 1645.64 657.192 1655.05 657.192C1658.51 657.192 1661.39 656.424 1663.69 654.888C1666.19 653.16 1667.44 650.568 1667.44 647.112C1667.44 642.312 1664.84 638.472 1659.66 635.592C1654.48 632.52 1646.41 629.064 1635.47 625.224C1622.41 620.616 1611.56 616.104 1602.92 611.688C1594.48 607.272 1587.18 600.84 1581.04 592.392C1574.89 583.944 1571.92 573.096 1572.11 559.848C1572.11 546.6 1575.47 535.368 1582.19 526.152C1589.1 516.744 1598.41 509.64 1610.12 504.84C1622.03 500.04 1635.37 497.64 1650.16 497.64C1675.12 497.64 1694.89 503.4 1709.48 514.92C1724.27 526.44 1732.04 542.664 1732.81 563.592H1663.98C1663.79 557.832 1662.35 553.704 1659.66 551.208C1656.97 548.712 1653.71 547.464 1649.87 547.464C1647.18 547.464 1644.97 548.424 1643.24 550.344C1641.52 552.072 1640.65 554.568 1640.65 557.832C1640.65 562.44 1643.15 566.28 1648.14 569.352C1653.32 572.232 1661.48 575.784 1672.62 580.008C1685.48 584.808 1696.04 589.416 1704.3 593.832C1712.75 598.248 1720.04 604.392 1726.19 612.264C1732.33 620.136 1735.4 630.024 1735.4 641.928C1735.4 654.408 1732.33 665.64 1726.19 675.624C1720.04 685.416 1711.12 693.096 1699.4 698.664C1687.69 704.232 1673.77 707.016 1657.64 707.016Z" fill="#5B6065"/>
</svg>
